<svg width="20" height="21" viewBox="0 0 20 21" fill="none" xmlns="http://www.w3.org/2000/svg">
<path fill-rule="evenodd" clip-rule="evenodd" d="M0.666667 0C0.489856 0 0.320286 0.0737496 0.195262 0.205025C0.0702379 0.3363 0 0.514347 0 0.699998L0 16.1C0 16.2856 0.0702379 16.4637 0.195262 16.5949C0.320286 16.7262 0.489856 16.8 0.666667 16.8H3.33333V20.3C3.33332 20.4338 3.36985 20.5648 3.43857 20.6775C3.50729 20.7902 3.60534 20.8798 3.72109 20.9358C3.83685 20.9918 3.96546 21.0118 4.09169 20.9933C4.21792 20.9749 4.33648 20.9189 4.43333 20.832L8.91333 16.8H15.3333C15.4209 16.8001 15.5077 16.7822 15.5887 16.7471C15.6697 16.712 15.7433 16.6605 15.8053 16.5956L19.8053 12.3956C19.8672 12.3304 19.9162 12.2532 19.9496 12.1681C19.983 12.0831 20.0002 11.992 20 11.9V0.699998C20 0.514347 19.9298 0.3363 19.8047 0.205025C19.6797 0.0737496 19.5101 0 19.3333 0L0.666667 0ZM13.3333 11.2V4.19999H14.6667V11.2H13.3333ZM9.33333 4.19999V11.2H10.6667V4.19999H9.33333Z" fill="white" fill-opacity="0.5"/>
</svg>
