<svg width="20" height="13" viewBox="0 0 26 17" fill="none" xmlns="http://www.w3.org/2000/svg">
<path fill-rule="evenodd" clip-rule="evenodd" d="M0 8.35778C0 8.11153 0.0978251 7.87536 0.271955 7.70123C0.446085 7.5271 0.682255 7.42927 0.928512 7.42927H22.8284L16.9843 1.58707C16.81 1.41272 16.712 1.17625 16.712 0.929685C16.712 0.683117 16.81 0.446648 16.9843 0.272298C17.1587 0.0979485 17.3952 5.80934e-09 17.6417 0C17.8883 -5.80934e-09 18.1248 0.0979485 18.2991 0.272298L25.7272 7.7004C25.8137 7.78665 25.8823 7.88911 25.9291 8.00191C25.9759 8.11472 26 8.23565 26 8.35778C26 8.47991 25.9759 8.60084 25.9291 8.71365C25.8823 8.82646 25.8137 8.92892 25.7272 9.01517L18.2991 16.4433C18.1248 16.6176 17.8883 16.7156 17.6417 16.7156C17.3952 16.7156 17.1587 16.6176 16.9843 16.4433C16.81 16.2689 16.712 16.0324 16.712 15.7859C16.712 15.5393 16.81 15.3028 16.9843 15.1285L22.8284 9.28629H0.928512C0.682255 9.28629 0.446085 9.18847 0.271955 9.01434C0.0978251 8.84021 0 8.60404 0 8.35778Z" fill="#DFC28C" fill-opacity="0.6"/>
</svg>
