<svg width="23" height="18" viewBox="0 0 23 18" fill="none" xmlns="http://www.w3.org/2000/svg">
<path d="M7.23329 18C15.9129 18 20.6595 11.0755 20.6595 5.07125C20.6595 4.87451 20.6553 4.67879 20.6459 4.48382C21.5673 3.84248 22.3683 3.04194 23 2.13107C22.1545 2.4928 21.2447 2.73639 20.2902 2.84622C21.2643 2.28372 22.0125 1.39351 22.3654 0.332508C21.4535 0.853184 20.4437 1.23154 19.3691 1.43558C18.5077 0.552416 17.2813 0 15.9244 0C13.3182 0 11.2048 2.0351 11.2048 4.54352C11.2048 4.90021 11.2464 5.24682 11.327 5.57958C7.40542 5.3899 3.92781 3.58151 1.60068 0.832277C1.19495 1.50359 0.961353 2.28397 0.961353 3.116C0.961353 4.69239 1.79452 6.08413 3.06142 6.89853C2.28736 6.8756 1.56014 6.67056 0.924206 6.32999C0.92316 6.34888 0.92316 6.36803 0.92316 6.38793C0.92316 8.58877 2.55 10.4261 4.70893 10.8425C4.31261 10.9466 3.89564 11.0025 3.46505 11.0025C3.16108 11.0025 2.86548 10.9733 2.57799 10.9206C3.17861 12.7257 4.92082 14.0396 6.98635 14.0767C5.37102 15.2956 3.33635 16.0218 1.12563 16.0218C0.745015 16.0218 0.369369 16.0009 0 15.9589C2.08829 17.2476 4.56793 18 7.23329 18Z" fill="white" fill-opacity="0.5"/>
</svg>
